<?xml version="1.0" standalone="no"?>
<!DOCTYPE svg PUBLIC "-//W3C//DTD SVG 20010904//EN"
 "http://www.w3.org/TR/2001/REC-SVG-20010904/DTD/svg10.dtd">
<svg version="1.0" xmlns="http://www.w3.org/2000/svg"
 width="500.000000pt" height="500.000000pt" viewBox="0 0 500.000000 500.000000"
 preserveAspectRatio="xMidYMid meet">

<g transform="translate(0.000000,500.000000) scale(0.100000,-0.100000)"
fill="#000000" stroke="none">
<path d="M2160 4580 c-447 -75 -842 -279 -1158 -599 -395 -398 -612 -922 -612
-1477 0 -553 205 -1066 586 -1464 401 -419 942 -650 1522 -650 946 0 1767 621
2031 1535 87 303 101 672 36 992 -128 630 -540 1170 -1115 1462 -200 102 -388
162 -625 201 -161 27 -509 27 -665 0z m515 -21 c580 -49 1125 -350 1475 -814
286 -380 441 -881 416 -1343 -37 -673 -375 -1263 -936 -1636 -113 -76 -340
-186 -470 -230 -520 -173 -1084 -136 -1568 104 -226 112 -370 215 -551 393
-174 172 -295 341 -405 566 -374 769 -230 1703 357 2318 444 464 1053 697
1682 642z"/>
<path d="M2606 4334 c-6 -47 -2 -64 15 -64 5 0 9 25 9 55 0 67 -15 72 -24 9z"/>
<path d="M2337 4343 c-13 -13 -7 -30 16 -42 l22 -11 -24 6 c-17 4 -22 2 -19
-7 3 -8 15 -14 29 -14 31 0 39 34 10 42 -12 3 -21 9 -21 14 0 5 7 6 15 3 8 -4
15 -1 15 5 0 12 -32 15 -43 4z"/>
<path d="M2157 4323 c-12 -12 -7 -50 8 -63 17 -14 47 -10 53 9 3 10 -2 11 -18
6 -15 -5 -20 -4 -16 4 4 6 14 11 22 11 12 0 12 4 4 20 -10 19 -40 27 -53 13z"/>
<path d="M2887 4318 c-2 -7 -4 -29 -3 -48 1 -25 6 -36 19 -38 9 -2 17 1 17 7
0 6 -4 11 -10 11 -15 0 -12 16 5 34 17 16 10 46 -10 46 -7 0 -15 -6 -18 -12z"/>
<path d="M1978 4293 c-4 -19 29 -83 42 -83 4 0 14 8 21 17 12 15 12 16 -3 11
-19 -8 -31 25 -15 41 8 8 6 11 -6 11 -9 0 -17 5 -17 10 0 17 -18 11 -22 -7z"/>
<path d="M3049 4273 c-6 -16 -13 -40 -16 -55 -7 -35 14 -38 23 -3 9 36 25 31
18 -5 -9 -41 13 -39 24 3 10 36 7 47 -13 47 -8 0 -11 7 -8 20 8 30 -16 24 -28
-7z"/>
<path d="M1844 4225 c3 -8 9 -22 12 -30 11 -26 -12 -16 -24 11 -7 14 -16 22
-22 19 -10 -6 7 -55 23 -66 5 -4 19 -1 31 4 21 10 22 14 13 44 -6 18 -17 33
-25 33 -9 0 -12 -6 -8 -15z"/>
<path d="M3216 4181 c-25 -28 -13 -63 21 -59 33 4 49 41 27 63 -20 20 -27 19
-48 -4z m30 -38 c-11 -11 -19 6 -11 24 8 17 8 17 12 0 3 -10 2 -21 -1 -24z"/>
<path d="M1664 4156 c-3 -8 -11 -13 -17 -11 -7 3 -20 -2 -31 -10 -17 -13 -17
-18 -6 -45 7 -16 19 -30 27 -30 10 0 13 6 9 15 -3 8 -9 22 -12 30 -3 8 -1 15
4 15 6 0 14 -9 17 -20 11 -33 27 -23 20 13 l-6 32 20 -25 c26 -33 37 -20 16
19 -17 33 -32 40 -41 17z"/>
<path d="M3376 4095 c-9 -13 -16 -29 -16 -35 0 -9 50 -35 55 -28 8 10 25 49
25 57 0 19 -18 12 -25 -9 -3 -11 -11 -20 -17 -20 -5 0 -7 7 -4 15 3 8 9 22 12
30 10 24 -12 17 -30 -10z"/>
<path d="M2335 4070 c-113 -10 -295 -53 -401 -96 -380 -153 -661 -408 -843
-764 -177 -346 -216 -766 -108 -1146 l22 -79 738 -3 737 -2 0 1050 0 1050 -27
-1 c-16 -1 -68 -5 -118 -9z m-285 -741 l0 -120 163 2 162 2 3 -52 3 -51 -165
0 -165 0 6 -337 6 -338 -27 -32 c-33 -40 -76 -47 -211 -38 l-103 7 -4 54 -3
54 65 -5 c36 -3 77 -8 93 -10 15 -3 38 0 52 5 l25 10 0 262 0 263 -31 -40
c-18 -22 -82 -89 -143 -150 -113 -111 -216 -193 -342 -271 l-69 -43 -37 41
c-21 22 -38 44 -38 47 0 4 21 17 46 29 139 68 369 250 481 381 106 124 128
112 -199 110 l-283 -1 -3 54 -3 53 311 -3 311 -3 -6 83 c-3 46 -8 100 -11 121
l-4 37 60 0 60 0 0 -121z"/>
<path d="M2520 3029 l0 -1049 734 0 734 0 21 63 c46 143 56 220 56 457 0 247
-9 311 -67 490 -195 605 -762 1047 -1385 1083 l-93 6 0 -1050z m1135 390 c60
-96 60 -101 7 -115 -13 -4 -24 -5 -26 -3 -2 2 -22 37 -46 77 -23 40 -46 75
-51 78 -22 13 -11 24 58 53 1 1 27 -40 58 -90z m-168 -21 c17 -29 41 -70 53
-91 l22 -37 -38 -16 c-25 -10 -40 -12 -42 -6 -2 6 -26 48 -53 93 -27 45 -48
83 -47 84 17 9 55 24 63 24 6 1 24 -23 42 -51z m-647 -193 c0 -123 4 -205 10
-205 5 0 78 20 162 44 170 50 304 99 396 145 l61 31 21 -47 c11 -26 19 -51 17
-56 -7 -23 -486 -190 -634 -222 l-33 -7 0 -168 c0 -161 1 -170 23 -195 33 -38
122 -49 342 -42 160 6 245 14 338 33 l27 6 0 -60 c0 -73 20 -67 -275 -83 -363
-20 -500 4 -544 94 -19 40 -20 64 -23 490 l-3 447 58 0 57 0 0 -205z"/>
<path d="M1481 4021 c-8 -5 -9 -11 -3 -15 5 -3 15 1 22 9 14 16 3 20 -19 6z"/>
<path d="M3537 4002 c-22 -24 -22 -52 0 -52 14 0 15 -2 4 -12 -10 -11 -15 -10
-25 4 -7 10 -16 15 -20 11 -8 -8 23 -43 40 -43 13 0 64 60 64 75 0 8 -31 34
-41 35 -3 0 -13 -8 -22 -18z m33 -21 c0 -12 -20 -25 -27 -18 -7 7 6 27 18 27
5 0 9 -4 9 -9z"/>
<path d="M1315 3980 c-10 -16 5 -51 34 -76 32 -28 50 -20 22 10 -16 17 -18 25
-9 34 9 9 6 12 -12 13 -14 0 -19 3 -12 6 6 2 12 9 12 14 0 12 -27 12 -35 -1z"/>
<path d="M3683 3891 c-36 -42 -33 -64 4 -29 26 25 33 6 7 -23 -25 -28 1 -31
27 -3 19 21 21 28 11 44 -7 12 -8 21 -2 25 14 9 12 25 -2 24 -7 0 -28 -18 -45
-38z"/>
<path d="M1196 3824 c-9 -8 -13 -20 -10 -26 5 -7 12 -4 21 8 12 17 13 15 7
-13 -8 -40 7 -48 40 -20 29 25 33 37 12 37 -7 0 -19 7 -26 15 -16 19 -25 19
-44 -1z"/>
<path d="M3839 3783 c-19 -5 -52 -60 -44 -73 3 -6 13 -10 21 -10 8 0 12 5 9
10 -9 14 13 40 28 34 7 -2 13 6 13 21 1 14 -1 24 -5 24 -3 -1 -13 -3 -22 -6z"/>
<path d="M1071 3686 c-9 -11 -10 -20 -1 -35 13 -25 58 -28 67 -5 14 37 -41 71
-66 40z m29 -10 c0 -3 -4 -8 -10 -11 -5 -3 -10 -1 -10 4 0 6 5 11 10 11 6 0
10 -2 10 -4z m24 -11 c-4 -8 -11 -15 -16 -15 -6 0 -5 6 2 15 7 8 14 15 16 15
2 0 1 -7 -2 -15z"/>
<path d="M940 3571 c0 -5 7 -12 16 -15 13 -5 14 -9 4 -21 -10 -13 -9 -19 5
-35 21 -24 55 -26 55 -5 0 8 5 15 10 15 21 0 8 18 -30 44 -41 27 -60 32 -60
17z m65 -52 c12 -19 -5 -23 -22 -6 -16 16 -16 17 -1 17 9 0 20 -5 23 -11z"/>
<path d="M3998 3522 c-32 -34 -27 -55 10 -41 26 10 26 10 8 -10 -26 -29 -13
-41 29 -28 40 12 48 32 10 24 -24 -4 -24 -3 -10 13 22 25 18 33 -12 25 -27 -6
-27 -6 -10 13 10 11 14 23 9 26 -5 3 -20 -7 -34 -22z"/>
<path d="M4117 3344 c-26 -14 -45 -29 -42 -34 4 -7 14 -6 26 1 11 5 25 8 32 6
7 -2 0 -10 -15 -17 -16 -7 -28 -16 -28 -20 0 -17 15 -18 42 -4 24 12 29 20 24
39 -4 15 -1 25 9 29 15 5 21 26 8 26 -5 -1 -30 -12 -56 -26z"/>
<path d="M803 3264 c-13 -36 33 -68 62 -44 17 14 20 40 5 40 -5 0 -10 -7 -10
-15 0 -8 -5 -15 -10 -15 -7 0 -7 6 -1 19 6 10 7 21 4 25 -12 12 -44 6 -50 -10z
m37 -8 c0 -3 -4 -8 -10 -11 -5 -3 -10 -1 -10 4 0 6 5 11 10 11 6 0 10 -2 10
-4z"/>
<path d="M4173 3173 c-23 -4 -34 -43 -13 -43 6 0 10 5 10 11 0 5 5 7 11 4 6
-5 4 -12 -8 -20 -14 -11 -16 -16 -5 -26 7 -8 12 -9 12 -3 0 6 12 16 26 22 18
9 24 19 22 34 -3 24 -17 29 -55 21z m37 -24 c0 -6 -4 -7 -10 -4 -5 3 -10 11
-10 16 0 6 5 7 10 4 6 -3 10 -11 10 -16z"/>
<path d="M740 3094 c-11 -12 -11 -18 2 -30 14 -14 17 -14 31 0 20 20 33 21 17
1 -14 -17 -8 -31 9 -20 17 10 13 55 -3 55 -8 0 -18 -4 -21 -10 -3 -5 -11 -10
-17 -10 -7 0 -6 6 2 15 7 8 8 15 2 15 -5 0 -15 -7 -22 -16z"/>
<path d="M4260 3001 c0 -5 -11 -12 -25 -15 -28 -7 -36 -46 -9 -46 8 0 13 4 10
9 -3 5 2 12 11 16 10 3 19 1 21 -4 5 -16 22 -13 22 4 0 8 6 15 13 15 7 0 4 7
-7 15 -22 17 -36 19 -36 6z"/>
<path d="M697 2933 c-4 -3 -7 -17 -7 -29 0 -17 7 -25 27 -30 33 -9 58 19 42
47 -9 18 -49 26 -62 12z m44 -28 c-1 -15 -24 -12 -29 3 -3 9 2 13 12 10 10 -1
17 -7 17 -13z"/>
<path d="M660 2740 c0 -13 -7 -20 -20 -20 -34 0 -22 -17 18 -24 51 -8 72 -8
72 3 0 4 -15 13 -32 19 l-33 10 32 1 c39 1 51 16 20 25 -41 11 -57 7 -57 -14z"/>
<path d="M631 2564 c-11 -13 -11 -18 0 -29 22 -21 83 -5 87 23 2 12 -1 22 -7
22 -6 0 -11 -4 -11 -10 0 -5 -9 -10 -20 -10 -11 0 -20 5 -20 10 0 14 -13 12
-29 -6z"/>
<path d="M4270 2560 c0 -5 25 -10 55 -10 30 0 55 5 55 10 0 6 -25 10 -55 10
-30 0 -55 -4 -55 -10z"/>
<path d="M4257 2273 c-3 -15 -4 -29 -3 -30 1 -1 25 -5 54 -9 36 -4 52 -3 52 5
0 6 -6 11 -14 11 -8 0 -16 10 -18 23 -2 17 -11 23 -34 25 -27 3 -32 0 -37 -25z
m53 -3 c0 -5 -6 -10 -14 -10 -8 0 -18 5 -21 10 -3 6 3 10 14 10 12 0 21 -4 21
-10z"/>
<path d="M661 2268 c-1 -19 -21 -26 -21 -8 0 6 -4 10 -10 10 -20 0 -9 -31 13
-39 24 -9 97 7 97 21 0 5 -15 8 -34 8 -19 0 -37 6 -39 13 -3 7 -6 5 -6 -5z"/>
<path d="M708 2109 c-42 -24 -6 -75 40 -58 24 9 29 38 10 57 -14 14 -27 15
-50 1z m42 -29 c0 -5 -9 -10 -20 -10 -11 0 -20 5 -20 10 0 6 9 10 20 10 11 0
20 -4 20 -10z"/>
<path d="M4195 1990 c-3 -5 -3 -14 0 -20 3 -5 1 -10 -4 -10 -26 0 -7 -18 30
-29 23 -7 47 -15 55 -18 8 -3 14 1 14 11 0 9 -7 16 -15 16 -9 0 -12 6 -9 15
13 32 -53 64 -71 35z m44 -19 c9 -6 10 -11 2 -15 -13 -8 -31 1 -31 15 0 11 11
11 29 0z"/>
<path d="M4136 1814 c-9 -8 -16 -20 -16 -24 0 -16 46 -41 64 -34 22 9 20 51
-3 64 -25 13 -27 13 -45 -6z m44 -24 c0 -5 -6 -10 -14 -10 -8 0 -18 5 -21 10
-3 6 3 10 14 10 12 0 21 -4 21 -10z"/>
<path d="M812 1809 c-33 -13 -27 -53 9 -57 31 -4 53 20 44 48 -7 22 -18 24
-53 9z m38 -20 c0 -6 -4 -7 -10 -4 -5 3 -10 11 -10 16 0 6 5 7 10 4 6 -3 10
-11 10 -16z m-25 -9 c3 -5 1 -10 -4 -10 -6 0 -11 5 -11 10 0 6 2 10 4 10 3 0
8 -4 11 -10z"/>
<path d="M1084 1803 c16 -43 94 -169 154 -248 218 -291 528 -496 888 -587 128
-33 130 -33 374 -33 244 0 246 0 374 33 416 105 762 361 982 728 35 59 64 111
64 115 0 5 -637 9 -1421 9 -1349 0 -1421 -1 -1415 -17z"/>
<path d="M897 1652 c-30 -19 -33 -29 -13 -55 13 -17 16 -17 45 -2 18 9 29 20
26 25 -4 7 -13 6 -25 0 -35 -19 -45 -10 -16 13 35 28 22 42 -17 19z"/>
<path d="M3995 1551 c-3 -5 0 -13 7 -17 7 -4 23 -14 36 -22 19 -13 22 -12 22
2 0 18 -56 50 -65 37z"/>
<path d="M4070 1500 c0 -5 5 -10 10 -10 6 0 10 5 10 10 0 6 -4 10 -10 10 -5 0
-10 -4 -10 -10z"/>
<path d="M982 1491 c-8 -4 -12 -19 -10 -32 4 -31 38 -36 62 -10 15 17 16 23 6
36 -14 17 -38 19 -58 6z m38 -20 c0 -12 -20 -25 -27 -18 -7 7 6 27 18 27 5 0
9 -4 9 -9z"/>
<path d="M3907 1433 c-11 -10 -8 -41 3 -48 6 -4 18 -1 26 6 8 6 17 9 21 5 3
-3 1 -6 -5 -6 -7 0 -12 -4 -12 -10 0 -16 27 -11 34 6 9 24 -3 36 -33 30 -14
-3 -20 -3 -13 0 6 3 12 10 12 15 0 10 -23 12 -33 2z"/>
<path d="M3794 1310 c1 -17 36 -27 36 -10 0 7 -6 10 -14 7 -8 -3 -17 -1 -19 6
-2 7 -3 5 -3 -3z"/>
<path d="M1194 1255 c-4 -8 -3 -22 0 -31 6 -15 4 -15 -10 -3 -14 12 -16 11
-13 -6 3 -12 12 -20 24 -20 16 0 20 6 18 30 -1 17 1 22 4 13 5 -21 23 -24 23
-5 0 15 -20 37 -32 37 -5 0 -11 -7 -14 -15z"/>
<path d="M1318 1125 c-16 -31 -16 -36 -1 -50 16 -16 37 -17 31 -1 -2 5 7 12
20 17 26 10 29 27 5 36 -10 4 -22 12 -28 19 -8 10 -14 5 -27 -21z"/>
<path d="M3606 1108 c17 -28 59 -78 67 -78 14 0 7 22 -19 56 -25 32 -65 50
-48 22z"/>
<path d="M1466 1011 c-29 -31 -24 -51 7 -24 19 17 20 17 8 -4 -14 -27 3 -41
26 -21 14 11 15 10 9 -10 -11 -33 10 -27 24 7 16 40 4 58 -22 34 -19 -17 -19
-17 -13 9 10 37 -8 42 -39 9z"/>
<path d="M3367 955 c-18 -13 -18 -15 8 -59 27 -46 52 -63 40 -27 -3 11 -1 22
5 26 14 8 13 48 -2 63 -15 15 -29 15 -51 -3z m43 -31 c0 -17 -22 -14 -28 4 -2
7 3 12 12 12 9 0 16 -7 16 -16z"/>
<path d="M1761 834 c-14 -32 -18 -51 -11 -58 6 -6 17 6 31 38 14 32 18 51 11
58 -7 7 -17 -6 -31 -38z"/>
<path d="M3103 851 c3 -13 0 -21 -8 -21 -21 0 -27 -31 -10 -56 18 -28 23 -29
49 -9 17 13 17 17 4 56 -15 44 -46 71 -35 30z m17 -56 c0 -8 -4 -15 -10 -15
-5 0 -10 7 -10 15 0 8 5 15 10 15 6 0 10 -7 10 -15z"/>
<path d="M2020 740 c-12 -51 -4 -92 11 -52 5 13 14 19 22 16 8 -3 19 2 26 10
16 20 10 61 -9 61 -8 0 -20 4 -27 8 -7 5 -15 -10 -23 -43z m50 6 c0 -8 -4 -17
-9 -21 -12 -7 -24 12 -16 25 9 15 25 12 25 -4z"/>
<path d="M2942 760 c3 -20 0 -30 -9 -30 -7 0 -13 -7 -13 -16 0 -11 6 -14 23
-8 30 9 30 9 23 49 -8 43 -30 48 -24 5z"/>
<path d="M2204 725 c-9 -35 0 -52 29 -57 26 -5 37 11 37 55 0 26 -17 21 -24
-8 -9 -35 -23 -31 -18 5 5 37 -15 41 -24 5z"/>
<path d="M2743 743 c-21 -8 -14 -25 7 -18 11 4 20 2 20 -4 0 -6 -9 -11 -20
-11 -18 0 -19 -3 -10 -21 15 -28 54 -22 58 9 6 38 -21 59 -55 45z"/>
<path d="M2385 721 c-3 -5 7 -12 22 -14 l28 -4 -28 -2 c-32 -1 -35 -26 -5 -44
33 -21 65 32 36 61 -14 14 -44 16 -53 3z"/>
<path d="M2565 720 c-3 -5 1 -10 9 -10 19 0 22 -36 4 -42 -9 -3 -8 -10 5 -23
31 -31 42 6 21 73 -4 14 -30 16 -39 2z"/>
</g>
</svg>
