<?xml version="1.0" standalone="no"?>
<!DOCTYPE svg PUBLIC "-//W3C//DTD SVG 20010904//EN"
 "http://www.w3.org/TR/2001/REC-SVG-20010904/DTD/svg10.dtd">
<svg version="1.0" xmlns="http://www.w3.org/2000/svg"
 width="500.000000pt" height="500.000000pt" viewBox="0 0 500.000000 500.000000"
 preserveAspectRatio="xMidYMid meet">

<g transform="translate(0.000000,500.000000) scale(0.100000,-0.100000)"
fill="#000000" stroke="none">
<path d="M0 2500 l0 -2500 2500 0 2500 0 0 2500 0 2500 -2500 0 -2500 0 0
-2500z m2767 2105 c365 -47 724 -194 1013 -414 468 -356 762 -872 831 -1455
15 -130 6 -472 -15 -591 -83 -455 -279 -831 -595 -1146 -184 -183 -328 -288
-546 -397 -211 -106 -426 -174 -650 -207 -165 -25 -474 -23 -635 4 -442 73
-828 266 -1144 571 -319 308 -521 678 -612 1121 -35 170 -45 515 -20 689 84
577 377 1076 831 1416 287 215 642 361 995 408 143 19 402 19 547 1z"/>
<path d="M2305 4474 c-237 -33 -368 -65 -533 -130 -662 -260 -1133 -856 -1237
-1569 -21 -146 -21 -416 0 -560 15 -99 67 -325 81 -346 3 -5 806 -9 1884 -9
l1879 0 25 82 c61 203 80 360 73 613 -8 324 -63 548 -204 830 -286 572 -802
954 -1448 1071 -86 16 -448 28 -520 18z m1623 -911 c27 -43 57 -93 66 -110
l16 -32 -42 -22 c-23 -12 -44 -18 -45 -13 -2 5 -32 56 -67 114 l-64 105 37 17
c20 9 39 17 43 17 3 1 28 -34 56 -76z m-1996 -134 l-5 -150 202 3 201 3 0 -67
0 -68 -196 0 -196 0 3 -412 c4 -385 3 -415 -14 -439 -31 -46 -67 -54 -231 -51
-82 1 -153 5 -157 8 -5 3 -9 34 -9 69 l0 65 31 -7 c17 -3 76 -6 132 -7 138 -1
130 -25 120 350 l-8 295 -38 -49 c-53 -71 -227 -242 -321 -318 -86 -69 -283
-204 -327 -224 -24 -11 -29 -9 -67 31 -23 24 -42 49 -42 55 0 6 28 26 63 44
229 123 516 364 645 544 l33 46 -345 0 -346 0 0 68 0 67 376 -3 376 -3 -6 98
c-4 54 -9 122 -13 151 l-5 52 74 0 75 0 -5 -151z m1835 31 l63 -105 -42 -22
c-32 -16 -45 -19 -51 -10 -4 7 -27 46 -50 87 -24 41 -51 87 -61 102 l-18 27
34 15 c18 8 40 14 48 13 8 -1 43 -49 77 -107z m-815 -190 c-2 -149 0 -250 6
-250 20 0 294 81 422 125 74 25 181 68 237 95 l101 48 27 -59 c14 -33 24 -63
20 -68 -15 -25 -385 -157 -660 -235 l-150 -43 -2 -199 c-3 -225 0 -238 62
-269 37 -19 59 -20 310 -19 252 1 435 15 498 40 15 5 17 -2 17 -69 0 -73 0
-75 -28 -80 -160 -32 -754 -34 -850 -3 -66 21 -119 67 -132 114 -6 22 -11 257
-12 580 l-3 542 70 0 70 0 -3 -250z"/>
<path d="M680 1710 c0 -39 153 -299 249 -425 64 -85 232 -256 321 -328 396
-320 903 -479 1397 -438 186 15 311 41 482 98 419 139 793 429 1038 805 53 81
153 269 153 287 0 8 -518 11 -1820 11 -1230 0 -1820 -3 -1820 -10z"/>
</g>
</svg>
